<?xml version="1.0" encoding="UTF-8"?>
<!DOCTYPE svg PUBLIC "-//W3C//DTD SVG 1.1//EN" "http://www.w3.org/Graphics/SVG/1.1/DTD/svg11.dtd">
<svg version="1.1" xmlns="http://www.w3.org/2000/svg" xmlns:xlink="http://www.w3.org/1999/xlink" x="0" y="0" width="612" height="792" viewBox="0, 0, 612, 792">
  <g id="Layer_1">
    <g>
      <path d="M309.424,97.163 L309.424,112.566" fill-opacity="0" stroke="#000000" stroke-width="3"/>
      <path d="M305.225,112.566 L309.424,123.766 L313.625,112.566 z" fill="#000000" fill-opacity="1" stroke="#000000" stroke-width="3" stroke-opacity="1"/>
    </g>
    <g>
      <path d="M309.424,149.081 L309.424,164.484" fill-opacity="0" stroke="#000000" stroke-width="3"/>
      <path d="M305.225,164.484 L309.424,175.684 L313.625,164.484 z" fill="#000000" fill-opacity="1" stroke="#000000" stroke-width="3" stroke-opacity="1"/>
    </g>
    <g>
      <path d="M309.424,269.747 L309.424,285.15" fill-opacity="0" stroke="#000000" stroke-width="3"/>
      <path d="M305.225,285.15 L309.424,296.35 L313.625,285.15 z" fill="#000000" fill-opacity="1" stroke="#000000" stroke-width="3" stroke-opacity="1"/>
    </g>
    <g>
      <path d="M309.424,321.666 L309.424,337.068" fill-opacity="0" stroke="#000000" stroke-width="3"/>
      <path d="M305.225,337.068 L309.424,348.268 L313.625,337.068 z" fill="#000000" fill-opacity="1" stroke="#000000" stroke-width="3" stroke-opacity="1"/>
    </g>
    <g>
      <path d="M309.424,442.331 L309.424,453.768" fill-opacity="0" stroke="#000000" stroke-width="3"/>
      <path d="M305.225,453.768 L309.424,464.968 L313.625,453.768 z" fill="#000000" fill-opacity="1" stroke="#000000" stroke-width="3" stroke-opacity="1"/>
    </g>
    <g>
      <path d="M309.424,494.25 L309.424,509.652" fill-opacity="0" stroke="#000000" stroke-width="3"/>
      <path d="M305.225,509.652 L309.424,520.852 L313.625,509.652 z" fill="#000000" fill-opacity="1" stroke="#000000" stroke-width="3" stroke-opacity="1"/>
    </g>
    <g>
      <path d="M408.99,574.674 L521.738,418.973" fill-opacity="0" stroke="#000000" stroke-width="3"/>
      <path d="M525.139,421.436 L528.307,409.902 L518.336,416.51 z" fill="#000000" fill-opacity="1" stroke="#000000" stroke-width="3" stroke-opacity="1"/>
    </g>
    <g>
      <path d="M262.753,614.916 L244.791,633.618" fill-opacity="0" stroke="#000000" stroke-width="2"/>
      <path d="M242.194,631.124 L238.141,640.541 L247.387,636.111 z" fill="#000000" fill-opacity="1" stroke="#000000" stroke-width="2" stroke-opacity="1"/>
    </g>
    <g>
      <path d="M236.617,665.044 L255.117,686.84" fill-opacity="0" stroke="#000000" stroke-width="2"/>
      <path d="M252.373,689.17 L261.329,694.159 L257.862,684.511 z" fill="#000000" fill-opacity="1" stroke="#000000" stroke-width="2" stroke-opacity="1"/>
    </g>
    <g>
      <path d="M355.474,695.837 L380.378,673.016" fill-opacity="0" stroke="#000000" stroke-width="2"/>
      <path d="M382.81,675.67 L387.455,666.53 L377.945,670.362 z" fill="#000000" fill-opacity="1" stroke="#000000" stroke-width="2" stroke-opacity="1"/>
    </g>
    <g>
      <path d="M389.077,642.128 L364.644,622.342" fill-opacity="0" stroke="#000000" stroke-width="2"/>
      <path d="M366.91,619.544 L357.184,616.3 L362.378,625.14 z" fill="#000000" fill-opacity="1" stroke="#000000" stroke-width="2" stroke-opacity="1"/>
    </g>
    <g>
      <path d="M529.714,385.042 L417.235,237.468" fill-opacity="0" stroke="#000000" stroke-width="3"/>
      <path d="M420.575,234.922 L410.445,228.56 L413.894,240.014 z" fill="#000000" fill-opacity="1" stroke="#000000" stroke-width="3" stroke-opacity="1"/>
    </g>
    <g>
      <path d="M239.525,126.166 L379.324,126.166 C384.711,126.166 389.077,128.489 389.077,131.354 L389.077,143.893 C389.077,146.758 384.711,149.081 379.324,149.081 L239.525,149.081 C234.138,149.081 229.772,146.758 229.772,143.893 L229.772,131.354 C229.772,128.489 234.138,126.166 239.525,126.166 z" fill="#FFFFFF"/>
      <path d="M239.525,126.166 L379.324,126.166 C384.711,126.166 389.077,128.489 389.077,131.354 L389.077,143.893 C389.077,146.758 384.711,149.081 379.324,149.081 L239.525,149.081 C234.138,149.081 229.772,146.758 229.772,143.893 L229.772,131.354 C229.772,128.489 234.138,126.166 239.525,126.166 z" fill-opacity="0" stroke="#000000" stroke-width="0.5" stroke-miterlimit="10"/>
    </g>
    <g>
      <g>
        <path d="M209.859,5.5 L408.99,5.5 L408.99,97.163 L209.859,97.163 L209.859,5.5 z" fill="#D2D2D2"/>
        <path d="M209.859,5.5 L408.99,5.5 L408.99,97.163 L209.859,97.163 L209.859,5.5 z" fill-opacity="0" stroke="#000000" stroke-width="1"/>
      </g>
      <text transform="matrix(1, 0, 0, 1, 308.925, 50.831)">
        <tspan x="-39.756" y="-22.832" font-family="HelveticaNeue-Bold" font-size="24" fill="#000000">Clients</tspan>
        <tspan x="-51.849" y="1.168" font-family="HelveticaNeue-Bold" font-size="18" fill="#000000">Send values</tspan>
        <tspan x="-54.324" y="24.168" font-family="HelveticaNeue-Bold" font-size="18" fill="#000000">to be written</tspan>
      </text>
    </g>
    <g>
      <g>
        <path d="M209.859,178.084 L408.99,178.084 L408.99,269.747 L209.859,269.747 L209.859,178.084 z" fill="#D2D2D2"/>
        <path d="M209.859,178.084 L408.99,178.084 L408.99,269.747 L209.859,269.747 L209.859,178.084 z" fill-opacity="0" stroke="#000000" stroke-width="1"/>
      </g>
      <text transform="matrix(1, 0, 0, 1, 308.925, 223.416)">
        <tspan x="-69.732" y="-22.832" font-family="HelveticaNeue-Bold" font-size="24" fill="#000000">memWriters</tspan>
        <tspan x="-63.666" y="1.168" font-family="HelveticaNeue-Bold" font-size="18" fill="#000000">Write values to</tspan>
        <tspan x="-66.132" y="24.168" font-family="HelveticaNeue-Bold" font-size="18" fill="#000000">memory blocks</tspan>
      </text>
    </g>
    <g>
      <g>
        <path d="M209.859,350.668 L408.99,350.668 L408.99,442.331 L209.859,442.331 L209.859,350.668 z" fill="#D2D2D2"/>
        <path d="M209.859,350.668 L408.99,350.668 L408.99,442.331 L209.859,442.331 L209.859,350.668 z" fill-opacity="0" stroke="#000000" stroke-width="1"/>
      </g>
      <text transform="matrix(1, 0, 0, 1, 308.925, 396)">
        <tspan x="-58.416" y="-22.832" font-family="HelveticaNeue-Bold" font-size="24" fill="#000000">diskWriter</tspan>
        <tspan x="-95.958" y="1.168" font-family="HelveticaNeue-Bold" font-size="18" fill="#000000">Writes memory blocks</tspan>
        <tspan x="-28.989" y="24.168" font-family="HelveticaNeue-Bold" font-size="18" fill="#000000">to disk</tspan>
      </text>
    </g>
    <g>
      <path d="M239.525,298.75 L379.324,298.75 C384.71,298.75 389.077,301.073 389.077,303.938 L389.077,316.477 C389.077,319.343 384.71,321.666 379.324,321.666 L239.525,321.666 C234.138,321.666 229.772,319.343 229.772,316.477 L229.772,303.938 C229.772,301.073 234.138,298.75 239.525,298.75 z" fill="#FFFFFF"/>
      <path d="M239.525,298.75 L379.324,298.75 C384.71,298.75 389.077,301.073 389.077,303.938 L389.077,316.477 C389.077,319.343 384.71,321.666 379.324,321.666 L239.525,321.666 C234.138,321.666 229.772,319.343 229.772,316.477 L229.772,303.938 C229.772,301.073 234.138,298.75 239.525,298.75 z" fill-opacity="0" stroke="#000000" stroke-width="0.5" stroke-miterlimit="10"/>
    </g>
    <text transform="matrix(1, 0, 0, 1, 308.925, 311.691)">
      <tspan x="-74.421" y="1.525" font-family="HelveticaNeue-Bold" font-size="11" fill="#000000">diskWritableMemBlockChan</tspan>
    </text>
    <text transform="matrix(1, 0, 0, 1, 308.925, 137.123)">
      <tspan x="-43.994" y="2.021" font-family="HelveticaNeue-Bold" font-size="11" fill="#000000">writeValueChans</tspan>
    </text>
    <g>
      <path d="M457.948,385.042 L597.747,385.042 C603.133,385.042 607.5,387.365 607.5,390.23 L607.5,402.769 C607.5,405.635 603.133,407.958 597.747,407.958 L457.948,407.958 C452.561,407.958 448.194,405.635 448.194,402.769 L448.194,390.23 C448.194,387.365 452.561,385.042 457.948,385.042 z" fill="#FFFFFF"/>
      <path d="M457.948,385.042 L597.747,385.042 C603.133,385.042 607.5,387.365 607.5,390.23 L607.5,402.769 C607.5,405.635 603.133,407.958 597.747,407.958 L457.948,407.958 C452.561,407.958 448.194,405.635 448.194,402.769 L448.194,390.23 C448.194,387.365 452.561,385.042 457.948,385.042 z" fill-opacity="0" stroke="#000000" stroke-width="0.5" stroke-miterlimit="10"/>
    </g>
    <text transform="matrix(1, 0, 0, 1, 527.347, 396)">
      <tspan x="-61.298" y="2.021" font-family="HelveticaNeue-Bold" font-size="11" fill="#000000">clearedMemBlockChan</tspan>
    </text>
    <g>
      <g>
        <path d="M209.859,523.253 L408.99,523.253 L408.99,614.916 L209.859,614.916 L209.859,523.253 z" fill="#D2D2D2"/>
        <path d="M209.859,523.253 L408.99,523.253 L408.99,614.916 L209.859,614.916 L209.859,523.253 z" fill-opacity="0" stroke="#000000" stroke-width="1"/>
      </g>
      <text transform="matrix(1, 0, 0, 1, 308.925, 568.584)">
        <tspan x="-76.848" y="-22.832" font-family="HelveticaNeue-Bold" font-size="24" fill="#000000">memClearers</tspan>
        <tspan x="-96.564" y="-4.832" font-family="HelveticaNeue-Bold" font-size="12" fill="#000000">Convert memory blocks that have </tspan>
        <tspan x="-83.766" y="10.168" font-family="HelveticaNeue-Bold" font-size="12" fill="#000000">been written to disk into TOC </tspan>
        <tspan x="-77.544" y="25.168" font-family="HelveticaNeue-Bold" font-size="12" fill="#000000">blocks referencing the disk</tspan>
      </text>
    </g>
    <g>
      <path d="M239.525,467.368 L379.324,467.368 C384.711,467.368 389.077,470.093 389.077,473.454 L389.077,488.163 C389.077,491.525 384.711,494.25 379.324,494.25 L239.525,494.25 C234.139,494.25 229.772,491.525 229.772,488.163 L229.772,473.454 C229.772,470.093 234.139,467.368 239.525,467.368 z" fill="#FFFFFF"/>
      <path d="M239.525,467.368 L379.324,467.368 C384.711,467.368 389.077,470.093 389.077,473.454 L389.077,488.163 C389.077,491.525 384.711,494.25 379.324,494.25 L239.525,494.25 C234.139,494.25 229.772,491.525 229.772,488.163 L229.772,473.454 C229.772,470.093 234.139,467.368 239.525,467.368 z" fill-opacity="0" stroke="#000000" stroke-width="0.5" stroke-miterlimit="10"/>
    </g>
    <text transform="matrix(1, 0, 0, 1, 308.924, 481.789)">
      <tspan x="-65.973" y="1.96" font-family="HelveticaNeue-Bold" font-size="11" fill="#000000">clearableMemBlockChan</tspan>
    </text>
    <g>
      <g>
        <path d="M209.859,695.837 L408.99,695.837 L408.99,787.5 L209.859,787.5 L209.859,695.837 z" fill="#D2D2D2"/>
        <path d="M209.859,695.837 L408.99,695.837 L408.99,787.5 L209.859,787.5 L209.859,695.837 z" fill-opacity="0" stroke="#000000" stroke-width="1"/>
      </g>
      <text transform="matrix(1, 0, 0, 1, 308.925, 741.169)">
        <tspan x="-53.1" y="-22.831" font-family="HelveticaNeue-Bold" font-size="24" fill="#000000">tocWriter</tspan>
        <tspan x="-79.983" y="1.169" font-family="HelveticaNeue-Bold" font-size="18" fill="#000000">Writes TOC blocks</tspan>
        <tspan x="-28.989" y="24.169" font-family="HelveticaNeue-Bold" font-size="18" fill="#000000">to disk</tspan>
      </text>
    </g>
    <g>
      <path d="M148.049,642.128 L287.848,642.128 C293.234,642.128 297.601,644.451 297.601,647.317 L297.601,659.855 C297.601,662.721 293.234,665.044 287.848,665.044 L148.049,665.044 C142.662,665.044 138.296,662.721 138.296,659.855 L138.296,647.317 C138.296,644.451 142.662,642.128 148.049,642.128 z" fill="#FFFFFF"/>
      <path d="M148.049,642.128 L287.848,642.128 C293.234,642.128 297.601,644.451 297.601,647.317 L297.601,659.855 C297.601,662.721 293.234,665.044 287.848,665.044 L148.049,665.044 C142.662,665.044 138.296,662.721 138.296,659.855 L138.296,647.317 C138.296,644.451 142.662,642.128 148.049,642.128 z" fill-opacity="0" stroke="#000000" stroke-width="0.5" stroke-miterlimit="10"/>
    </g>
    <text transform="matrix(1, 0, 0, 1, 217.448, 653.086)">
      <tspan x="-61.617" y="1.96" font-family="HelveticaNeue-Bold" font-size="11" fill="#000000">pendingTOCBlockChan</tspan>
    </text>
    <g>
      <path d="M343.447,642.128 L483.246,642.128 C488.632,642.128 492.999,644.451 492.999,647.317 L492.999,659.855 C492.999,662.721 488.632,665.044 483.246,665.044 L343.447,665.044 C338.06,665.044 333.694,662.721 333.694,659.855 L333.694,647.317 C333.694,644.451 338.06,642.128 343.447,642.128 z" fill="#FFFFFF"/>
      <path d="M343.447,642.128 L483.246,642.128 C488.632,642.128 492.999,644.451 492.999,647.317 L492.999,659.855 C492.999,662.721 488.632,665.044 483.246,665.044 L343.447,665.044 C338.06,665.044 333.694,662.721 333.694,659.855 L333.694,647.317 C333.694,644.451 338.06,642.128 343.447,642.128 z" fill-opacity="0" stroke="#000000" stroke-width="0.5" stroke-miterlimit="10"/>
    </g>
    <text transform="matrix(1, 0, 0, 1, 412.846, 653.086)">
      <tspan x="-50.622" y="1.96" font-family="HelveticaNeue-Bold" font-size="11" fill="#000000">freeTOCBlockChan</tspan>
    </text>
    <g>
      <g>
        <path d="M17.136,365.541 L154.956,365.541 C161.382,365.541 166.592,369.899 166.592,375.275 L166.592,417.725 C166.592,423.101 161.382,427.459 154.956,427.459 L17.136,427.459 C10.71,427.459 5.5,423.101 5.5,417.725 L5.5,375.275 C5.5,369.899 10.71,365.541 17.136,365.541 z" fill="#FFFFFF"/>
        <path d="M17.136,365.541 L154.956,365.541 C161.382,365.541 166.592,369.899 166.592,375.275 L166.592,417.725 C166.592,423.101 161.382,427.459 154.956,427.459 L17.136,427.459 C10.71,427.459 5.5,423.101 5.5,417.725 L5.5,375.275 C5.5,369.899 10.71,365.541 17.136,365.541 z" fill-opacity="0" stroke="#000000" stroke-width="1"/>
      </g>
      <text transform="matrix(1, 0, 0, 1, 85.546, 396)">
        <tspan x="-71.325" y="3.898" font-family="HelveticaNeue-Bold" font-size="18" fill="#000000">keyLocationMap</tspan>
      </text>
    </g>
    <g>
      <g>
        <path d="M209.859,564.759 L98.323,434.299" fill-opacity="0" stroke="#000000" stroke-width="1"/>
        <path d="M100.603,432.35 L93.125,428.219 L96.043,436.249 z" fill="#000000" fill-opacity="1" stroke="#000000" stroke-width="1" stroke-opacity="1"/>
      </g>
      <text fill="#000000" transform="matrix(0.65, 0.76, -0.76, 0.65, 156.103, 490.961)">
        <tspan x="-23.112" y="4.548" font-family="HelveticaNeue-Bold" font-size="12">updates</tspan>
      </text>
    </g>
    <g>
      <g>
        <path d="M209.859,226.651 L98.284,358.667" fill-opacity="0" stroke="#000000" stroke-width="1"/>
        <path d="M95.993,356.731 L93.12,364.777 L100.576,360.604 z" fill="#000000" fill-opacity="1" stroke="#000000" stroke-width="1" stroke-opacity="1"/>
      </g>
      <text fill="#000000" transform="matrix(0.645, -0.764, 0.764, 0.645, 156.129, 300.213)">
        <tspan x="-23.112" y="4.548" font-family="HelveticaNeue-Bold" font-size="12">updates</tspan>
      </text>
    </g>
    <text transform="matrix(1, 0, 0, 1, 102.54, 75.551)">
      <tspan x="-53.124" y="-47.551" font-family="HelveticaNeue-BoldItalic" font-size="24" fill="#000000">Overview</tspan>
      <tspan x="-11.34" y="-18.551" font-family="HelveticaNeue-BoldItalic" font-size="24" fill="#000000">of</tspan>
      <tspan x="-46.908" y="10.449" font-family="HelveticaNeue-BoldItalic" font-size="24" fill="#000000">store.go</tspan>
    </text>
    <text transform="matrix(1, 0, 0, 1, 519.809, 50.831)">
      <tspan x="-87.191" y="-34.832" font-family="HelveticaNeue-Medium" font-size="11" fill="#000000">Except for clients, which might be </tspan>
      <tspan x="-87.191" y="-21.832" font-family="HelveticaNeue-Medium" font-size="11" fill="#000000">of any number, plural items have </tspan>
      <tspan x="-87.191" y="-8.832" font-family="HelveticaNeue-Medium" font-size="11" fill="#000000">the same number of instances as </tspan>
      <tspan x="-87.191" y="4.168" font-family="HelveticaNeue-Medium" font-size="11" fill="#000000">cores.</tspan>
      <tspan x="-87.191" y="30.168" font-family="HelveticaNeue-Medium" font-size="11" fill="#000000">Each channel has capacity for </tspan>
      <tspan x="-87.191" y="43.168" font-family="HelveticaNeue-Medium" font-size="11" fill="#000000">one item for each core as well.</tspan>
    </text>
    <text transform="matrix(1, 0, 0, 1, 519.809, 137.124)">
      <tspan x="-87.191" y="-15.5" font-family="HelveticaNeue-Medium" font-size="11" fill="#000000">There are multiple </tspan>
      <tspan x="-87.191" y="-2.5" font-family="HelveticaNeue-Medium" font-size="11" fill="#000000">writeValueChans to alleviate </tspan>
      <tspan x="-87.191" y="10.5" font-family="HelveticaNeue-Medium" font-size="11" fill="#000000">contention from multiple cores </tspan>
      <tspan x="-87.191" y="23.5" font-family="HelveticaNeue-Medium" font-size="11" fill="#000000">and the many small values.</tspan>
    </text>
  </g>
</svg>
